<svg xmlns="http://www.w3.org/2000/svg" viewBox="0 0 250 250"><defs><style>.cls-1{isolation:isolate;}.cls-2{fill:#231f20;opacity:0.14;mix-blend-mode:multiply;}.cls-3{fill:#f5f5f5;}.cls-10,.cls-11,.cls-4,.cls-6,.cls-7{fill:none;stroke-miterlimit:10;}.cls-4{stroke:#c8c8c8;stroke-width:2.48px;}.cls-5{fill:#f3ea98;}.cls-6,.cls-7{stroke:#59595c;}.cls-6{stroke-width:4.04px;}.cls-7{stroke-width:4.2px;}.cls-8{fill:#e6bd98;}.cls-9{fill:#59595c;}.cls-10,.cls-11{stroke:#808081;}.cls-10{stroke-width:0.79px;}.cls-11{stroke-width:1.05px;}.cls-12{fill:#e5bb96;}.cls-13{fill:#e4ba97;}.cls-14{fill:#c97;}.cls-15{fill:#c0b274;}.cls-16{fill:#d9ce8c;}.cls-17{fill:#808081;}.cls-18{fill:#fff;}.cls-19{fill:#e77582;}.cls-20{fill:#835e3d;}.cls-21{fill:#da9c94;}.cls-22{fill:#c8c8c8;}</style></defs><title>Zeichenfläche 1</title><g class="cls-1"><g id="Ebene_1" data-name="Ebene 1"><ellipse class="cls-2" cx="119.43" cy="223.94" rx="81.57" ry="4.4"/><circle class="cls-3" cx="119.43" cy="138.93" r="86.39"/><circle class="cls-4" cx="119.43" cy="138.93" r="86.39"/><path class="cls-5" d="M90.41,29.9s-68.56,10.36-49.77,79L65.19,92.69Z"/><path class="cls-6" d="M111.25,185.06s-37.46,17.75,3.89,34.84"/><path class="cls-7" d="M196,165.89s-29.16,31.2-68.73,22.6"/><path class="cls-8" d="M193.4,166.07c-3.61-.1-16.11-8.63-10.85-11.56,4.13-2.11,9.88,6.59,11.77,9.29l.38-.27a30.46,30.46,0,0,1,5.11-4c2.91-1.72,18-8.47,20.84-4.86,4.09,4.7-16.18,9.05-19.46,9.76,5.34-1,15.18,1.11,17.3,6.74-3.91,4.85-15.38-3.84-19-6.49,1.79,2.07,8.33,8.95,2.69,9.38-2.93.23-5.39-3.44-6.77-5.57"/><path class="cls-9" d="M122.92,225.11h1.23c.37-.09.73-.18,1.1-.25l3-.17,1-.19a34.73,34.73,0,0,1,5.69-1.62l3.85-.22.11,0,.7,0c.56-.14,1.12-.26,1.68-.38l3.55-48.75-34.23.15,1.7,51a27.68,27.68,0,0,1,4.6.55A25.62,25.62,0,0,1,122.92,225.11Z"/><line class="cls-10" x1="129.14" y1="193.82" x2="129.14" y2="226.23"/><polygon class="cls-11" points="119.92 191.51 121.45 199.22 129.39 192.19 137.84 200.3 140.52 190.61 119.92 191.51"/><path class="cls-5" d="M43.6,95.38s1.26,14.3-6.71,15.71c0,0,1.81,3.09,5.9,1.23,0,0,2.46,4-5.14,5.23,0,0,13.87,16.18,23.3,2.68S56.11,103,56.11,103Z"/><path class="cls-5" d="M49.91,126.93s5.36,25.42,34.4,25.56-6.22-22.17-6.22-22.17Z"/><path class="cls-5" d="M167.49,71.23c7.57,27-12.74,56.43-46.84,66s-67.87-4.57-75.44-31.56S56.34,39.57,90.44,30C117.72,22.36,155.15,27.2,167.49,71.23Z"/><path class="cls-12" d="M72.42,136.2c1.85,9.22,3.43,19.78,8.64,27.82,3.92,6.06,10,9.35,16.06,12.91,9.18,5.42,17.08,14.27,27.68,16.92,37.14,9.3,44.62-42.23,44.2-67.91-.13-8-.88-16.06-4.23-23.45q-.32-.69-.66-1.35s3.21-8.61-2.27-13.47l.37-17.82-102,29.72Z"/><path class="cls-5" d="M102.91,30.31S121.83,73.14,92,97.79c0,0,64.7-4.51,73.66-33.4Z"/><path class="cls-5" d="M64,113.81l5.1,14.43,6.53-4.38-8.89-17S87.22,99,99.89,87.65l-34.7,5-12.86,8s14.46,15.68,13,14.41"/><path class="cls-13" d="M67.69,119.37S59.51,108,49.53,117.85c-12.45,12.26,12,17.38,12,17.38s7.76,1.72,5.62,9.6-1.92,10.67,1,11.34,8.5-2.37,8.36-7C75.89,129.44,67.69,119.37,67.69,119.37Z"/><path class="cls-14" d="M69.87,132.77s-13.78-23.4-11.91-4C58,128.82,59.11,117.74,69.87,132.77Z"/><path class="cls-14" d="M70,132.82s-9.21-11.35-4.54,4.11C65.42,136.93,63.49,126.87,70,132.82Z"/><path class="cls-15" d="M90.39,29.79s51.07,15,13,65.55C103.39,95.34,136.22,48.88,90.39,29.79Z"/><path class="cls-15" d="M91.87,30.74c64.94,15.6,40.2,56.05,40.2,56.05C160.88,43,91.87,30.74,90.58,30.23"/><path class="cls-16" d="M90.41,29.9c.69-6.12,5.16,57.9-41.32,77.77C50.29,106.47,83.66,90,90.41,29.9Z"/><path class="cls-15" d="M125.28,62.65s11.35,14.59-7.83,28.74C117.45,91.39,131.8,77.51,125.28,62.65Z"/><path class="cls-16" d="M136.4,40.7s23.66,10.4,22.62,30C159,70.74,153.72,48.6,136.4,40.7Z"/><path class="cls-17" d="M132.51,199.87a.95.95,0,0,0-1.9,0,.95.95,0,0,0,1.9,0Z"/><path class="cls-17" d="M132.51,204.19a.95.95,0,1,0-.95.95A.95.95,0,0,0,132.51,204.19Z"/><circle class="cls-17" cx="131.56" cy="208.74" r="0.95"/><path class="cls-17" d="M132.51,212.83a.95.95,0,1,0-.95.95A.94.94,0,0,0,132.51,212.83Z"/><path class="cls-17" d="M132.51,216.92a.95.95,0,1,0-.95,1A.94.94,0,0,0,132.51,216.92Z"/><path class="cls-17" d="M132.51,221.71a.95.95,0,1,0-.95.95A.95.95,0,0,0,132.51,221.71Z"/><path class="cls-5" d="M94.41,29a64.24,64.24,0,0,0-21.4-7c-2.49-.35-5.61-.25-6.79,2a1.21,1.21,0,0,0-.17.8c.08.37.44.61.77.8A27.38,27.38,0,0,0,74,28l9.93,2.45c-6.82-.6-14-1.14-20.27,1.56-1.24.53-2.63,1.65-2.2,2.92a2.24,2.24,0,0,0,1,1.09c1.57,1,3.57,1.1,5.45,1.07a117.33,117.33,0,0,0,20.4-2"/><path class="cls-5" d="M131,105.52l-2.45,8.13s-30-15.1-41.22,9.15L80.94,112S101.18,83.54,131,105.52Z"/><path class="cls-5" d="M139.1,104.3l3.73,4.35S153.78,92,166.94,104l.05-8.15S147.9,83.54,139.1,104.3Z"/><path d="M156.69,159.66c-9.57-1.42-19.05.94-28.71,1.18-4.3.12-8.49,1.27-12.79,1.63-2.13.18-4.26.11-6.39.33-.6.07-5.09.68-4.77.26a6.24,6.24,0,0,1-1.34,1.28c5.57,8.52,15.53,18.95,30.12,16.65,16.24-2.56,22.13-14.14,24.25-21.33A2.28,2.28,0,0,1,156.69,159.66Z"/><path class="cls-18" d="M97.36,154.21l60.86-.39a31,31,0,0,1-1.7,7.54L104,166.31A59.26,59.26,0,0,1,97.36,154.21Z"/><path class="cls-19" d="M145.62,176.2A30.7,30.7,0,0,1,133,181a24.9,24.9,0,0,1-8.32-.05C133.05,167,141.72,172.46,145.62,176.2Z"/><path class="cls-20" d="M100.17,149.42s-12-2.21-7.91,8.66C92.26,158.08,90.51,150.22,100.17,149.42Z"/><path class="cls-21" d="M135.12,131.11,133,105.26l10.72,25.54s6.71-10.44,10.59-.86c2.13,5.27-2,6.29-6.15,6.14.73,1.32.43,2.74-2.53,3.85-4.07,1.55-5.66-.69-6.26-3.1-3.92,3.26-12.65,8.9-13.58-2.57C125.06,125,135.12,131.11,135.12,131.11Z"/><path class="cls-18" d="M143.76,131s6.14-9.53,10.07-2c-4.66-3.65-10,3.9-10,3.9l-10.75-27.46Z"/><path class="cls-20" d="M96.86,124.86s13.31-23.89,29.68-4.38C126.54,120.48,108.83,109.2,96.86,124.86Z"/><path class="cls-20" d="M165,114.79s-13.81-19.88-19.14,2.83C145.86,117.62,154,102.52,165,114.79Z"/><path class="cls-22" d="M111.27,223.83a119.35,119.35,0,0,0,32.93-3.07l-1.18,1.9-12.41,2.66-9.43.91h-8.53l-1.38-.91Z"/></g></g></svg>